<?xml version="1.0" encoding="UTF-8" standalone="no"?><!DOCTYPE svg PUBLIC "-//W3C//DTD SVG 1.1//EN" "http://www.w3.org/Graphics/SVG/1.1/DTD/svg11.dtd"><svg width="100%" height="100%" viewBox="0 0 691 616" version="1.1" xmlns="http://www.w3.org/2000/svg" xmlns:xlink="http://www.w3.org/1999/xlink" xml:space="preserve" xmlns:serif="http://www.serif.com/" style="fill-rule:evenodd;clip-rule:evenodd;stroke-linecap:round;stroke-linejoin:round;"><rect x="0" y="0" width="690.711" height="615.25" style="fill:#fff;"/><g id="items"><g id="blend"><g id="g-root-tf_hvwt2kji25u1-fill"><g id="tf_hvwt2kji25u1-fill-merged"><g><path d="M0,0l690.709,0l0,615.25l-690.709,0l0,-615.25" style="fill:#fff;"/></g></g></g><g id="g-root-sy_4_cu_940nccji24n7-fill"><g id="sy_4_cu_940nccji24n7-fill-merged"><g><path d="M406.944,248.03c4.2,-0 8.729,-1.341 11.615,-4.011c0.38,-0.363 0.742,-0.737 1.086,-1.143c0.333,0.406 0.694,0.78 1.085,1.143c2.886,2.68 7.104,4.011 11.294,4.011c4.191,-0 8.41,-1.341 11.295,-4.011c0.381,-0.363 0.743,-0.737 1.076,-1.143c0.334,0.406 0.695,0.78 1.086,1.143c2.886,2.68 7.095,4.011 11.294,4.011c4.201,-0 8.41,-1.341 11.295,-4.011c0.381,-0.363 0.743,-0.737 1.076,-1.143c0.334,0.406 0.695,0.78 1.086,1.143c2.886,2.68 7.104,4.011 11.294,4.011c4.191,-0 8.409,-1.341 11.295,-4.011c0.38,-0.363 0.743,-0.737 1.086,-1.143c0.333,0.406 0.695,0.78 1.076,1.143c2.886,2.68 7.104,4.011 11.294,4.011c4.191,-0 8.409,-1.341 11.295,-4.011c0.38,-0.363 0.743,-0.737 1.086,-1.143c0.332,0.406 0.694,0.78 1.076,1.143c2.885,2.68 7.104,4.011 11.294,4.011c4.191,-0 8.409,-1.341 11.295,-4.011c0.38,-0.363 0.742,-0.737 1.086,-1.143c0.333,0.406 0.694,0.78 1.076,1.143c2.885,2.68 7.104,4.011 11.294,4.011c4.19,-0 8.409,-1.341 11.295,-4.011c0.38,-0.363 0.742,-0.737 1.085,-1.143c0.334,0.406 0.695,0.78 1.077,1.143c2.885,2.68 7.104,4.011 11.294,4.011c4.19,-0 8.409,-1.341 11.294,-4.011c0.381,-0.363 0.743,-0.737 1.086,-1.143c0.333,0.406 0.695,0.78 1.086,1.143c2.886,2.68 7.104,4.011 11.294,4.011c4.191,-0 8.409,-1.341 11.295,-4.011c0.38,-0.363 0.743,-0.737 1.086,-1.143c0.332,0.406 0.695,0.78 1.085,1.143c2.885,2.68 7.37,4.018 11.257,4.018l9.195,12.629l0,30.668l-17.25,34.5l0,46l-17.25,34.499l0,34.501l-45.725,86.179l-11.5,-0l-29.025,42.238l-17.25,-28.75l-11.5,-0l-34.5,-57.5l0,-30.667l-23,-34.5l0,-34.501l-11.5,-18.207l0,-33.542l-23,-40.25l0,-31.147l8.644,-12.157l0.592,-0" style="fill:#de8431;"/></g></g></g><g id="g-root-sy_4_cu_940nccji24n7-stroke"><g id="sy_4_cu_940nccji24n7-stroke"><g><path d="M406.944,248.029c4.2,0 8.729,-1.34 11.615,-4.01c0.381,-0.363 0.742,-0.737 1.085,-1.143c0.334,0.406 0.696,0.78 1.086,1.143c2.886,2.681 7.104,4.01 11.295,4.01c4.19,0 8.409,-1.34 11.294,-4.01c0.381,-0.363 0.743,-0.737 1.076,-1.143c0.334,0.406 0.695,0.78 1.086,1.143c2.885,2.681 7.095,4.01 11.294,4.01c4.2,0 8.409,-1.34 11.295,-4.01c0.381,-0.363 0.743,-0.737 1.076,-1.143c0.333,0.406 0.695,0.78 1.086,1.143c2.885,2.681 7.104,4.01 11.294,4.01c4.19,0 8.409,-1.34 11.295,-4.01c0.381,-0.363 0.743,-0.737 1.086,-1.143c0.333,0.406 0.695,0.78 1.076,1.143c2.885,2.681 7.104,4.01 11.294,4.01c4.19,0 8.409,-1.34 11.295,-4.01c0.381,-0.363 0.742,-0.737 1.085,-1.143c0.334,0.406 0.696,0.78 1.076,1.143c2.886,2.681 7.105,4.01 11.295,4.01c4.19,0 8.409,-1.34 11.295,-4.01c0.38,-0.363 0.742,-0.737 1.085,-1.143c0.334,0.406 0.695,0.78 1.076,1.143c2.886,2.681 7.105,4.01 11.295,4.01c4.19,0 8.409,-1.34 11.294,-4.01c0.381,-0.363 0.743,-0.737 1.086,-1.143c0.333,0.406 0.695,0.78 1.076,1.143c2.886,2.681 7.105,4.01 11.295,4.01c4.19,0 8.409,-1.34 11.294,-4.01c0.381,-0.363 0.743,-0.737 1.086,-1.143c0.333,0.406 0.695,0.78 1.086,1.143c2.885,2.681 7.104,4.01 11.294,4.01c4.19,0 8.409,-1.34 11.295,-4.01c0.381,-0.363 0.743,-0.737 1.085,-1.143c0.334,0.406 0.696,0.78 1.086,1.143c2.886,2.681 7.37,4.019 11.257,4.019l9.195,12.629l0,30.666l-17.25,34.5l0,46.001l-17.25,34.499l0,34.5l-45.724,86.18l-11.5,0l-29.026,42.237l-17.25,-28.75l-11.5,0l-34.5,-57.5l0,-30.667l-23,-34.499l0,-34.501l-11.5,-18.208l0,-33.541l-23,-40.25l0,-31.147l8.644,-12.158l0.592,0Zm59.764,20.141l-34.5,0l-23,23l-11.5,0m224.25,36.58l-17.25,-23l-23,0m-149.5,78.583l7.667,11.5l15.333,0m122.027,38.034l17.25,0l11.5,-23m-104.777,130.633l11.5,-11.5l11.5,-0" style="fill:none;stroke:#fff;stroke-width:1.92px;"/></g></g></g><g id="g-root-sy_4_cu_1_940nccji24n8-fill"><g id="sy_4_cu_1_940nccji24n8-fill-merged"><g><path d="M406.38,248.038c4.567,0.136 9.345,-1.348 12.231,-4.018c0.381,-0.362 0.743,-0.736 1.085,-1.142c0.334,0.406 0.696,0.78 1.086,1.142c2.886,2.682 7.104,4.011 11.295,4.011c4.19,0 8.409,-1.341 11.294,-4.011c0.381,-0.362 0.744,-0.736 1.076,-1.142c0.334,0.406 0.696,0.78 1.086,1.142c2.885,2.682 7.094,4.011 11.295,4.011c4.199,0 8.408,-1.341 11.294,-4.011c0.381,-0.362 0.743,-0.736 1.076,-1.142c0.333,0.406 0.696,0.78 1.086,1.142c2.885,2.682 7.104,4.011 11.295,4.011c4.189,0 8.408,-1.341 11.294,-4.011c0.381,-0.362 0.743,-0.736 1.085,-1.142c0.334,0.406 0.696,0.78 1.077,1.142c2.885,2.682 7.104,4.011 11.295,4.011c4.189,0 8.409,-1.341 11.293,-4.011c0.382,-0.362 0.744,-0.736 1.086,-1.142c0.334,0.406 0.696,0.78 1.076,1.142c2.886,2.682 7.105,4.011 11.295,4.011c4.19,0 8.409,-1.341 11.295,-4.011c0.381,-0.362 0.743,-0.736 1.085,-1.142c0.334,0.406 0.696,0.78 1.076,1.142c2.886,2.682 7.104,4.011 11.295,4.011c4.19,0 8.409,-1.341 11.294,-4.011c0.382,-0.362 0.744,-0.736 1.086,-1.142c0.334,0.406 0.696,0.78 1.076,1.142c2.886,2.682 7.104,4.011 11.295,4.011c4.19,0 8.41,-1.341 11.294,-4.011c0.382,-0.362 0.744,-0.736 1.086,-1.142c0.333,0.406 0.696,0.78 1.086,1.142c2.885,2.682 7.104,4.011 11.295,4.011c4.189,0 8.408,-1.341 11.294,-4.011c0.381,-0.362 0.742,-0.736 1.085,-1.142c0.334,0.406 0.696,0.78 1.086,1.142c2.746,2.551 7.15,4.016 11.231,4.016l-32.951,-42.953l-11.5,12.459l-35.458,-46.959l-10.542,0l-21.083,-26.833l-38.333,48.875l-7.668,-8.625l-34.499,46l-10.542,0l-3.833,-4.792l-17.25,22.83" style="fill:#969696;"/></g></g></g><g id="g-root-sy_4_cu_1_940nccji24n8-stroke"><g id="sy_4_cu_1_940nccji24n8-stroke"><g><path d="M406.38,248.037c4.567,0.137 9.345,-1.346 12.231,-4.017c0.381,-0.362 0.743,-0.736 1.085,-1.142c0.334,0.406 0.696,0.78 1.086,1.142c2.886,2.682 7.104,4.011 11.295,4.011c4.19,0 8.409,-1.34 11.294,-4.011c0.381,-0.362 0.743,-0.736 1.076,-1.142c0.334,0.406 0.696,0.78 1.086,1.142c2.886,2.682 7.095,4.011 11.295,4.011c4.199,0 8.409,-1.34 11.294,-4.011c0.381,-0.362 0.743,-0.736 1.076,-1.142c0.334,0.406 0.695,0.78 1.086,1.142c2.885,2.682 7.104,4.011 11.294,4.011c4.191,0 8.409,-1.34 11.295,-4.011c0.381,-0.362 0.743,-0.736 1.086,-1.142c0.333,0.406 0.695,0.78 1.076,1.142c2.885,2.682 7.104,4.011 11.294,4.011c4.191,0 8.409,-1.34 11.295,-4.011c0.381,-0.362 0.743,-0.736 1.086,-1.142c0.333,0.406 0.695,0.78 1.076,1.142c2.885,2.682 7.104,4.011 11.294,4.011c4.19,0 8.409,-1.34 11.295,-4.011c0.381,-0.362 0.743,-0.736 1.085,-1.142c0.334,0.406 0.696,0.78 1.077,1.142c2.885,2.682 7.104,4.011 11.294,4.011c4.19,0 8.409,-1.34 11.295,-4.011c0.381,-0.362 0.742,-0.736 1.085,-1.142c0.334,0.406 0.695,0.78 1.076,1.142c2.886,2.682 7.105,4.011 11.295,4.011c4.19,0 8.409,-1.34 11.295,-4.011c0.381,-0.362 0.742,-0.736 1.085,-1.142c0.333,0.406 0.695,0.78 1.086,1.142c2.885,2.682 7.104,4.011 11.294,4.011c4.191,0 8.409,-1.34 11.295,-4.011c0.381,-0.362 0.743,-0.736 1.086,-1.142c0.333,0.406 0.695,0.78 1.085,1.142c2.746,2.55 7.15,4.016 11.231,4.016l-32.951,-42.953l-11.5,12.459l-35.458,-46.959l-10.542,0l-21.083,-26.833l-38.333,48.875l-7.667,-8.625l-34.5,46l-10.542,0l-3.833,-4.792l-17.25,22.829Zm133.207,-77.454l-15.334,0m-71.004,59.417l-15.246,0m147.584,-12.458l-8.625,9.104m-96.792,-34.021l-9.583,12.458" style="fill:none;stroke:#fff;stroke-width:1.92px;"/></g></g></g><g id="g-root-sy_4_cu_2_8dn3gji25fx-stroke"><g id="sy_4_cu_2_8dn3gji25fx-stroke"><g><path d="M667.711,242.876c-0.333,0.406 -0.695,0.78 -1.085,1.143c-2.886,2.681 -7.095,4.01 -11.295,4.01c-4.2,0 -8.409,-1.34 -11.294,-4.01c-0.381,-0.363 -0.743,-0.737 -1.077,-1.143c-0.333,0.406 -0.695,0.78 -1.085,1.143c-2.886,2.681 -7.105,4.01 -11.295,4.01c-4.19,0 -8.409,-1.34 -11.294,-4.01c-0.381,-0.363 -0.743,-0.737 -1.086,-1.143c-0.333,0.406 -0.695,0.78 -1.076,1.143c-2.886,2.681 -7.104,4.01 -11.295,4.01c-4.19,0 -8.409,-1.34 -11.294,-4.01c-0.381,-0.363 -0.743,-0.737 -1.086,-1.143c-0.333,0.406 -0.695,0.78 -1.076,1.143c-2.886,2.681 -7.104,4.01 -11.295,4.01c-4.19,0 -8.409,-1.34 -11.294,-4.01c-0.381,-0.363 -0.743,-0.737 -1.086,-1.143c-0.333,0.406 -0.695,0.78 -1.076,1.143c-2.885,2.681 -7.104,4.01 -11.294,4.01c-4.191,0 -8.41,-1.34 -11.295,-4.01c-0.381,-0.363 -0.743,-0.737 -1.086,-1.143c-0.333,0.406 -0.695,0.78 -1.076,1.143c-2.885,2.681 -7.104,4.01 -11.294,4.01c-4.191,0 -8.409,-1.34 -11.295,-4.01c-0.381,-0.363 -0.743,-0.737 -1.086,-1.143c-0.333,0.406 -0.695,0.78 -1.085,1.143c-2.886,2.681 -7.105,4.01 -11.295,4.01c-4.19,0 -8.409,-1.34 -11.294,-4.01c-0.381,-0.363 -0.743,-0.737 -1.086,-1.143c-0.333,0.406 -0.695,0.78 -1.086,1.143c-2.885,2.681 -7.472,4.019 -11.662,4.019c-4.2,-0 -8.534,-1.349 -11.42,-4.019c-0.381,-0.363 -0.743,-0.737 -1.086,-1.143c-0.333,0.406 -0.695,0.78 -1.085,1.143c-2.886,2.681 -7.105,4.01 -11.295,4.01c-4.19,0 -8.409,-1.34 -11.294,-4.01c-0.381,-0.363 -0.743,-0.737 -1.076,-1.143c-0.334,0.406 -0.696,0.78 -1.086,1.143c-2.886,2.681 -7.095,4.01 -11.295,4.01c-4.199,0 -8.409,-1.34 -11.294,-4.01c-0.381,-0.363 -0.743,-0.737 -1.076,-1.143c-0.334,0.406 -0.695,0.78 -1.086,1.143c-2.886,2.681 -7.104,4.01 -11.295,4.01c-4.19,0 -8.409,-1.34 -11.294,-4.01c-0.381,-0.363 -0.743,-0.737 -1.086,-1.143c-0.333,0.406 -0.695,0.78 -1.076,1.143c-2.885,2.681 -7.104,4.01 -11.294,4.01c-4.191,0 -8.409,-1.34 -11.295,-4.01c-0.381,-0.363 -0.743,-0.737 -1.086,-1.143c-0.333,0.406 -0.695,0.78 -1.076,1.143c-2.885,2.681 -7.104,4.01 -11.294,4.01c-4.19,0 -8.409,-1.34 -11.295,-4.01c-0.381,-0.363 -0.743,-0.737 -1.085,-1.143c-0.334,0.406 -0.696,0.78 -1.077,1.143c-2.885,2.681 -7.104,4.01 -11.294,4.01c-4.19,0 -8.409,-1.34 -11.295,-4.01c-0.381,-0.363 -0.742,-0.737 -1.085,-1.143c-0.334,0.406 -0.696,0.78 -1.076,1.143c-2.886,2.681 -7.105,4.01 -11.295,4.01c-4.19,0 -8.409,-1.34 -11.295,-4.01c-0.38,-0.363 -0.742,-0.737 -1.085,-1.143c-0.334,0.406 -0.695,0.78 -1.086,1.143c-2.885,2.681 -7.104,4.01 -11.294,4.01c-4.191,0 -8.409,-1.34 -11.295,-4.01c-0.381,-0.363 -0.743,-0.737 -1.086,-1.143c-0.333,0.406 -0.695,0.78 -1.085,1.143c-2.886,2.681 -7.473,4.019 -11.663,4.019c-4.2,-0 -8.534,-1.349 -11.42,-4.019c-0.381,-0.363 -0.743,-0.737 -1.086,-1.143c-0.333,0.406 -0.695,0.78 -1.085,1.143c-2.886,2.681 -7.105,4.01 -11.295,4.01c-4.19,0 -8.409,-1.34 -11.294,-4.01c-0.381,-0.363 -0.743,-0.737 -1.077,-1.143c-0.333,0.406 -0.695,0.78 -1.085,1.143c-2.886,2.681 -7.095,4.01 -11.295,4.01c-4.2,0 -8.409,-1.34 -11.294,-4.01c-0.381,-0.363 -0.743,-0.737 -1.076,-1.143c-0.334,0.406 -0.696,0.78 -1.086,1.143c-2.886,2.681 -7.104,4.01 -11.295,4.01c-4.19,0 -8.409,-1.34 -11.294,-4.01c-0.381,-0.363 -0.743,-0.737 -1.086,-1.143c-0.333,0.406 -0.695,0.78 -1.076,1.143c-2.886,2.681 -7.104,4.01 -11.295,4.01c-4.19,0 -8.409,-1.34 -11.294,-4.01c-0.381,-0.363 -0.743,-0.737 -1.086,-1.143c-0.333,0.406 -0.695,0.78 -1.076,1.143c-2.885,2.681 -7.104,4.01 -11.294,4.01c-4.191,0 -8.409,-1.34 -11.295,-4.01c-0.381,-0.363 -0.743,-0.737 -1.086,-1.143c-0.333,0.406 -0.695,0.78 -1.076,1.143c-2.885,2.681 -7.104,4.01 -11.294,4.01c-4.191,0 -8.409,-1.34 -11.295,-4.01c-0.381,-0.363 -0.743,-0.737 -1.085,-1.143c-0.334,0.406 -0.696,0.78 -1.077,1.143c-2.885,2.681 -7.104,4.01 -11.294,4.01c-4.19,0 -8.409,-1.34 -11.295,-4.01c-0.381,-0.363 -0.743,-0.737 -1.085,-1.143c-0.334,0.406 -0.696,0.78 -1.086,1.143c-2.886,2.681 -7.104,4.01 -11.295,4.01m0,0c-4.199,0 -8.534,-1.34 -11.419,-4.01c-0.381,-0.363 -0.743,-0.737 -1.086,-1.143c-0.333,0.406 -0.695,0.78 -1.086,1.143c-2.885,2.681 -7.104,4.01 -11.294,4.01c-4.191,0 -8.409,-1.34 -11.295,-4.01c-0.381,-0.363 -0.743,-0.737 -1.076,-1.143m37.256,5.153l0,0.009" style="fill:none;stroke:#484848;stroke-width:1.92px;"/></g></g></g><g id="g-root-sy_4_line_1uto6y4ji2612-stroke"><g id="sy_4_line_1uto6y4ji2612-stroke"><g><path d="M356.5,166.746l159.083,0" style="fill:none;stroke:#484848;stroke-width:1.92px;"/><path d="M509.833,172.975l6.229,-6.229l-6.229,-6.229" style="fill:none;stroke:#484848;stroke-width:1.92px;"/></g></g></g><g id="g-root-sy_1_line_1uto6y4ji2613-stroke"><g id="sy_1_line_1uto6y4ji2613-stroke"><g><path d="M356.5,327.746l170.583,0" style="fill:none;stroke:#484848;stroke-width:1.92px;"/><path d="M521.333,333.975l6.23,-6.229l-6.23,-6.229" style="fill:none;stroke:#484848;stroke-width:1.92px;"/></g></g></g><g id="g-root-sy_2_line_1uto6y4ji2614-stroke"><g id="sy_2_line_1uto6y4ji2614-stroke"><g><path d="M356.5,385.25l134.167,-0" style="fill:none;stroke:#484848;stroke-width:1.92px;"/><path d="M484.917,391.479l6.229,-6.229l-6.229,-6.23" style="fill:none;stroke:#484848;stroke-width:1.92px;"/></g></g></g><g id="g-root-sy_3_line_1qduotoji26td-stroke"><g id="sy_3_line_1qduotoji26td-stroke"><g><path d="M356.5,442.746l193.583,0" style="fill:none;stroke:#484848;stroke-width:1.92px;"/><path d="M544.333,448.975l6.23,-6.229l-6.23,-6.229" style="fill:none;stroke:#484848;stroke-width:1.92px;"/></g></g></g><g id="g-root-sy_4_line_1_1qduotoji26te-stroke"><g id="sy_4_line_1_1qduotoji26te-stroke"><g><path d="M356.5,500.246l159.083,0" style="fill:none;stroke:#484848;stroke-width:1.92px;"/><path d="M509.833,506.475l6.229,-6.229l-6.229,-6.229" style="fill:none;stroke:#484848;stroke-width:1.92px;"/></g></g></g><g id="g-root-tx_programa_1hiu5nwji24gb-fill"><g id="tx_programa_1hiu5nwji24gb-fill-merged"><g><g><g transform="matrix(23.9583,0,0,23.9583,216.101,74.75)"></g><g transform="matrix(23.9583,0,0,23.9583,224.079,74.75)"></g><text x="46.556px" y="74.75px" style="font-family:'Helvetica-Bold', 'Helvetica';font-weight:700;font-size:23.958px;fill:#484848;">Programa de <tspan x="198.799px 216.101px " y="74.75px 74.75px ">Aﬁ</tspan>liados: Mais do que apenas comissões.</text></g></g></g></g><g id="g-root-ic_incr_18lbtbgjhqxhh-stroke"><g id="ic_incr_18lbtbgjhqxhh-stroke"><g><path d="M301.875,164.354l15.333,0m2.856,11.5l19.167,0c-0,0 0.958,0 0.958,0.959l0,9.583c0,-0 0,0.958 -0.958,0.958l-19.167,0c0,0 -0.958,0 -0.958,-0.958l-0,-9.583c-0,-0 -0,-0.959 0.958,-0.959m7.667,5.75c-0,1.059 0.858,1.917 1.917,1.917c1.058,-0 1.916,-0.858 1.916,-1.917c0,-1.058 -0.858,-1.916 -1.916,-1.916c-1.059,-0 -1.917,0.858 -1.917,1.916m-5.731,-21.083l5.348,-5.271c0.359,-0.363 0.849,-0.567 1.36,-0.567c0.511,0 1.001,0.204 1.361,0.567l1.112,1.112c0.36,0.363 0.85,0.567 1.361,0.567c0.511,-0 1.001,-0.204 1.36,-0.567l10.14,-10.216m-7.667,-0l7.667,-0l-0,7.667m-20.125,22.041l-0,-2.875c-0,-0.529 0.429,-0.958 0.958,-0.958l18.208,-0c0.53,-0 0.959,0.429 0.959,0.958l-0,9.584c-0,0.529 -0.429,0.958 -0.959,0.958l-2.875,-0m-20.393,-11.5c-1.421,-2.823 -3.27,-5.409 -5.482,-7.667l3.834,-5.271c0.393,-0.529 0.393,-1.253 -0,-1.782c-0.417,-0.635 -1.251,-0.843 -1.917,-0.479c-1.173,0.497 -2.531,0.231 -3.431,-0.671l-0.402,-0.518c-1.009,-0.998 -2.634,-0.998 -3.642,0l-0.518,0.518c-0.913,0.935 -2.313,1.203 -3.507,0.671c-0.604,-0.267 -1.312,-0.094 -1.725,0.421c-0.393,0.53 -0.393,1.254 -0,1.783l3.833,5.328c0,0 -6.9,6.632 -6.9,12.459c-0,3.669 1.907,7.074 5.036,8.991c3.129,1.916 7.029,2.068 10.298,0.4m-13.417,-21.85l17.25,0m-8.625,15.334l-0,1.916m-0,-11.5l-0,1.917m-3.833,7.667l5.75,-0c1.058,-0 1.916,-0.859 1.916,-1.917c0,-1.059 -0.858,-1.917 -1.916,-1.917l-3.834,0c-1.058,0 -1.916,-0.858 -1.916,-1.916c-0,-1.059 0.858,-1.917 1.916,-1.917l5.75,-0" style="fill:none;stroke:#484848;stroke-width:1.92px;"/></g></g></g><g id="g-root-tx_vendasau_4g2z3gji3j0g-fill"><g id="tx_vendasau_4g2z3gji3j0g-fill-merged"><g><g><text x="108.8px" y="178.25px" style="font-family:'Helvetica';font-size:19.167px;fill:#484848;">V<tspan x="120.535px 131.195px " y="178.25px 178.25px ">en</tspan>das <tspan x="177.034px 189.818px " y="178.25px 178.25px ">Au</tspan>mentadas</text></g></g></g></g><g id="g-root-ic_happ_4ikvfwji4zyk-stroke"><g id="ic_happ_4ikvfwji4zyk-stroke"><g><path d="M299.958,327.75c0,12.173 9.869,22.042 22.042,22.042c12.173,-0 22.042,-9.869 22.042,-22.042c-0,-12.173 -9.869,-22.042 -22.042,-22.042c-12.173,0 -22.042,9.869 -22.042,22.042Zm11.5,-4.313c0.265,0 0.48,0.215 0.48,0.48c-0,0.264 -0.215,0.479 -0.48,0.479c-0.264,-0 -0.479,-0.215 -0.479,-0.479c0,-0.265 0.215,-0.48 0.479,-0.48m21.084,0c-0.265,0 -0.479,0.215 -0.479,0.48c-0,0.264 0.214,0.479 0.479,0.479c0.264,-0 0.479,-0.215 0.479,-0.479c-0,-0.265 -0.215,-0.48 -0.479,-0.48m-3.119,11.021c0.593,-0.001 1.153,0.273 1.517,0.741c0.364,0.469 0.49,1.079 0.342,1.653c-1.087,4.238 -4.907,7.201 -9.282,7.201c-4.375,-0 -8.195,-2.963 -9.282,-7.201c-0.148,-0.574 -0.022,-1.184 0.342,-1.653c0.364,-0.468 0.924,-0.742 1.517,-0.741l14.846,0Z" style="fill:none;stroke:#484848;stroke-width:1.92px;"/></g></g></g><g id="g-root-tx_afiliado_dl33n0ji261b-fill"><g id="tx_afiliado_dl33n0ji261b-fill-merged"><g><g><g transform="matrix(19.1667,0,0,19.1667,159.812,339.25)"></g><g transform="matrix(19.1667,0,0,19.1667,165.137,339.25)"></g><text x="147.028px" y="339.25px" style="font-family:'Helvetica';font-size:19.167px;fill:#484848;">Aﬁliados Felizes</text></g></g></g></g><g id="g-root-ic_doub_1q5qip8ji4xs3-stroke"><g id="ic_doub_1q5qip8ji4xs3-stroke"><g><path d="M307.625,395.314c0,2.382 1.931,4.313 4.313,4.313c2.381,-0 4.312,-1.931 4.312,-4.313c0,-2.381 -1.931,-4.312 -4.313,-4.312c-2.381,-0 -4.312,1.931 -4.312,4.312Zm15.055,3.437l-1.937,-1.119c0.398,-1.519 0.398,-3.116 -0,-4.635l1.937,-1.119c0.459,-0.265 0.616,-0.851 0.351,-1.309l-1.437,-2.492c-0.265,-0.458 -0.851,-0.615 -1.309,-0.351l-1.938,1.118c-1.116,-1.105 -2.499,-1.901 -4.014,-2.314l0,-2.238c0,-0.53 -0.429,-0.959 -0.958,-0.959l-2.875,0c-0.529,0 -0.958,0.429 -0.958,0.959l-0,2.236c-1.516,0.414 -2.898,1.212 -4.014,2.318l-1.928,-1.116c-0.458,-0.264 -1.044,-0.107 -1.309,0.351l-1.438,2.492c-0.264,0.458 -0.107,1.044 0.351,1.309l1.938,1.119c-0.399,1.519 -0.399,3.115 -0,4.635l-1.938,1.119c-0.458,0.264 -0.615,0.851 -0.351,1.309l1.438,2.492c0.265,0.458 0.851,0.615 1.309,0.35l1.938,-1.117c1.113,1.101 2.493,1.897 4.004,2.309l-0,2.235c-0,0.53 0.429,0.959 0.958,0.959l2.875,-0c0.529,-0 0.958,-0.429 0.958,-0.959l0,-2.235c1.516,-0.413 2.898,-1.211 4.014,-2.317l1.938,1.118c0.458,0.264 1.044,0.107 1.309,-0.351l1.437,-2.492c0.262,-0.457 0.105,-1.04 -0.351,-1.305Zm5.07,-23.562c0,2.382 1.931,4.313 4.313,4.313c2.381,-0 4.312,-1.931 4.312,-4.313c0,-2.381 -1.931,-4.312 -4.313,-4.312c-2.381,-0 -4.312,1.931 -4.312,4.312Zm-6.43,-3.436l1.937,1.119c-0.398,1.519 -0.398,3.116 0,4.635l-1.937,1.119c-0.459,0.265 -0.616,0.851 -0.351,1.309l1.437,2.492c0.265,0.458 0.851,0.615 1.309,0.35l1.938,-1.117c1.116,1.104 2.499,1.901 4.014,2.313l-0,2.235c-0,0.53 0.429,0.959 0.958,0.959l2.875,-0c0.529,-0 0.958,-0.429 0.958,-0.959l0,-2.235c1.516,-0.413 2.898,-1.211 4.014,-2.317l1.938,1.118c0.458,0.264 1.044,0.107 1.309,-0.351l1.437,-2.492c0.265,-0.458 0.108,-1.044 -0.351,-1.309l-1.937,-1.115c0.398,-1.519 0.398,-3.116 -0,-4.635l1.937,-1.119c0.459,-0.265 0.616,-0.851 0.351,-1.309l-1.437,-2.492c-0.265,-0.458 -0.851,-0.615 -1.309,-0.351l-1.938,1.118c-1.116,-1.105 -2.499,-1.901 -4.014,-2.314l0,-2.238c0,-0.53 -0.429,-0.959 -0.958,-0.959l-2.875,0c-0.529,0 -0.958,0.429 -0.958,0.959l-0,2.238c-1.516,0.414 -2.898,1.212 -4.014,2.318l-1.928,-1.118c-0.458,-0.264 -1.044,-0.107 -1.309,0.351l-1.438,2.492c-0.263,0.455 -0.111,1.037 0.342,1.305Z" style="fill:none;stroke:#484848;stroke-width:1.92px;"/></g></g></g><g id="g-root-tx_comisses_mgq3vwji258m-fill"><g id="tx_comisses_mgq3vwji258m-fill-merged"><g><g><text x="76.715px" y="396.75px" style="font-family:'Helvetica';font-size:19.167px;fill:#484848;">Comissões <tspan x="175.786px 188.57px " y="396.75px 396.75px ">Au</tspan>tomáticas</text></g></g></g></g><g id="g-root-ic_edit_1qaqbe4ji3jsy-stroke"><g id="ic_edit_1qaqbe4ji3jsy-stroke"><g><path d="M334.458,445.625l0,15.333c0,2.117 -1.716,3.834 -3.833,3.834l-26.833,-0c-2.117,-0 -3.834,-1.717 -3.834,-3.834l0,-36.416c0,-2.117 1.717,-3.834 3.834,-3.834l26.833,0c2.117,0 3.833,1.717 3.833,3.834l0,1.916m-3.833,23l0,9.584c0,1.058 -0.858,1.916 -1.917,1.916l-23,0c-1.058,0 -1.916,-0.858 -1.916,-1.916l-0,-32.584c-0,-1.058 0.858,-1.916 1.916,-1.916l3.834,-0m15.333,-0l3.833,-0c1.059,-0 1.917,0.858 1.917,1.916l-0,3.834m-11.144,24.403l-4.065,-4.066l23.717,-23.718c1.123,-1.124 2.944,-1.124 4.068,-0.001c1.123,1.124 1.123,2.945 -0.001,4.068l-23.719,23.717Zm17.62,-25.751l4.066,4.065m-25.751,17.62l-2.43,6.496l6.495,-2.43l-4.065,-4.066Zm-7.791,-8.837l0.701,1.403c0.134,0.267 0.387,0.454 0.682,0.502c0.295,0.048 0.595,-0.049 0.806,-0.261l3.561,-3.561m3.833,1.917l1.917,-0m-9.583,-21.084l15.333,0l-0,3.834c-0,1.058 -0.858,1.916 -1.917,1.916l-11.5,0c-1.058,0 -1.916,-0.858 -1.916,-1.916l-0,-3.834Zm-1.917,13.417l0.701,1.403c0.134,0.267 0.387,0.454 0.682,0.502c0.295,0.048 0.595,-0.049 0.806,-0.261l3.561,-3.561m3.833,1.917l7.667,-0" style="fill:none;stroke:#484848;stroke-width:1.92px;"/></g></g></g><g id="g-root-tx_regrasde_qwjm0cji24gd-fill"><g id="tx_regrasde_qwjm0cji24gd-fill-merged"><g><g><g transform="matrix(19.1667,0,0,19.1667,233.523,454.25)"></g><g transform="matrix(19.1667,0,0,19.1667,238.848,454.25)"></g><text x="141.91px" y="454.25px" style="font-family:'Helvetica';font-size:19.167px;fill:#484848;">Regras Deﬁnidas</text></g></g></g></g><g id="g-root-ic_grou_1ulk0toji3jm1-stroke"><g id="ic_grou_1ulk0toji3jm1-stroke"><g><path d="M344.042,501.208l-3.918,-5.485c-0.19,-0.266 -0.504,-0.417 -0.831,-0.4c-0.326,0.018 -0.622,0.201 -0.783,0.486l-11.442,20.246c-0.171,0.301 -0.49,0.487 -0.836,0.487l-8.464,-0c-0.346,0 -0.665,-0.186 -0.836,-0.487l-11.442,-20.246c-0.161,-0.285 -0.457,-0.468 -0.783,-0.486c-0.327,-0.017 -0.641,0.134 -0.831,0.4l-3.918,5.485m1.917,15.334l11.719,-20.733c0.161,-0.285 0.456,-0.468 0.783,-0.486c0.327,-0.017 0.64,0.134 0.83,0.4l3.918,5.485m21.083,15.334l-11.718,-20.733c-0.161,-0.285 -0.457,-0.468 -0.783,-0.486c-0.327,-0.017 -0.641,0.134 -0.831,0.4l-3.918,5.485m-17.25,-13.416c0,2.117 1.717,3.833 3.834,3.833c2.117,-0 3.833,-1.716 3.833,-3.833c0,-2.117 -1.716,-3.834 -3.833,-3.834c-2.117,0 -3.834,1.717 -3.834,3.834Zm23.959,-0c-0,2.117 1.716,3.833 3.833,3.833c2.117,-0 3.833,-1.716 3.833,-3.833c0,-2.117 -1.716,-3.834 -3.833,-3.834c-2.117,0 -3.833,1.717 -3.833,3.834Z" style="fill:none;stroke:#484848;stroke-width:1.92px;"/></g></g></g><g id="g-root-tx_novosafi_147dnakji2618-fill"><g id="tx_novosafi_147dnakji2618-fill-merged"><g><g><g transform="matrix(19.1667,0,0,19.1667,223.284,511.75)"></g><g transform="matrix(19.1667,0,0,19.1667,228.609,511.75)"></g><text x="151.896px" y="511.75px" style="font-family:'Helvetica';font-size:19.167px;fill:#484848;">Novos <tspan x="210.5px 223.284px " y="511.75px 511.75px ">Aﬁ</tspan>liados</text></g></g></g></g></g></g></svg>